<?xml version="1.0" encoding="us-ascii" standalone="no"?><svg xmlns="http://www.w3.org/2000/svg" xmlns:xlink="http://www.w3.org/1999/xlink" contentStyleType="text/css" height="835.4167px" preserveAspectRatio="none" style="width:989px;height:835px;background:#F5F5F5;" version="1.1" viewBox="0 0 989 835" width="989.5833px" zoomAndPan="magnify"><defs><filter height="300%" id="fv51cxot6dvq8" width="300%" x="-1" y="-1"><feGaussianBlur result="blurOut" stdDeviation="2.0833333333333335"/><feColorMatrix in="blurOut" result="blurOut2" type="matrix" values="0 0 0 0 0 0 0 0 0 0 0 0 0 0 0 0 0 0 .4 0"/><feOffset dx="4.166666666666667" dy="4.166666666666667" in="blurOut2" result="blurOut3"/><feBlend in="SourceGraphic" in2="blurOut3" mode="normal"/></filter></defs><g><rect fill="#F5F5F5" height="835.4167" style="stroke:none;stroke-width:1.0416666666666667;" width="989.5833" x="0" y="0"/><!--cluster godot.org--><g id="cluster_godot.org"><path d="M582.2917,445.5104 L661.4583,445.5104 A6.25,6.25 0 0 1 665.625,449.6771 L672.9167,489.6189 L972.9167,489.6189 A4.1667,4.1667 0 0 1 977.0833,493.7855 L977.0833,819.3229 A4.1667,4.1667 0 0 1 972.9167,823.4896 L582.2917,823.4896 A4.1667,4.1667 0 0 1 578.125,819.3229 L578.125,449.6771 A4.1667,4.1667 0 0 1 582.2917,445.5104 " fill="none" filter="url(#fv51cxot6dvq8)" style="stroke:#2196F3;stroke-width:2.0833333333333335;"/><line style="stroke:#2196F3;stroke-width:2.0833333333333335;" x1="578.125" x2="672.9167" y1="489.6189" y2="489.6189"/><text fill="#2196F3" font-family="Verdana" font-size="12.5" font-weight="bold" lengthAdjust="spacing" textLength="60.4167" x="592.7083" y="471.373">godot.org</text></g><!--cluster godot-nim--><g id="cluster_godot-nim"><path d="M20.8333,16.6667 L105.2083,16.6667 A6.25,6.25 0 0 1 109.375,20.8333 L116.6667,60.7751 L548.9583,60.7751 A4.1667,4.1667 0 0 1 553.125,64.9418 L553.125,634.5938 A4.1667,4.1667 0 0 1 548.9583,638.7604 L20.8333,638.7604 A4.1667,4.1667 0 0 1 16.6667,634.5938 L16.6667,20.8333 A4.1667,4.1667 0 0 1 20.8333,16.6667 " fill="none" filter="url(#fv51cxot6dvq8)" style="stroke:#2196F3;stroke-width:2.0833333333333335;"/><line style="stroke:#2196F3;stroke-width:2.0833333333333335;" x1="16.6667" x2="116.6667" y1="60.7751" y2="60.7751"/><text fill="#2196F3" font-family="Verdana" font-size="12.5" font-weight="bold" lengthAdjust="spacing" textLength="65.625" x="31.25" y="42.5293">godot-nim</text></g><!--cluster library--><g id="cluster_library"><polygon fill="none" filter="url(#fv51cxot6dvq8)" points="212.5,238.9062,222.9167,228.4896,519.7917,228.4896,519.7917,595.0104,509.375,605.4271,212.5,605.4271,212.5,238.9062" style="stroke:#2196F3;stroke-width:1.0416666666666667;"/><line style="stroke:#2196F3;stroke-width:1.0416666666666667;" x1="509.375" x2="519.7917" y1="238.9062" y2="228.4896"/><line style="stroke:#2196F3;stroke-width:1.0416666666666667;" x1="212.5" x2="509.375" y1="238.9062" y2="238.9062"/><line style="stroke:#2196F3;stroke-width:1.0416666666666667;" x1="509.375" x2="509.375" y1="238.9062" y2="605.4271"/><text fill="#222222" font-family="Verdana" font-size="12.5" font-weight="bold" lengthAdjust="spacing" textLength="41.6667" x="341.1458" y="265.8105">library</text></g><!--entity gd--><g id="elem_gd"><rect fill="none" filter="url(#fv51cxot6dvq8)" height="58.6918" rx="4.1667" ry="4.1667" style="stroke:#2196F3;stroke-width:1.0416666666666667;" width="75" x="647.9167" y="748.1354"/><rect fill="none" height="5.2083" style="stroke:#2196F3;stroke-width:1.0416666666666667;" width="10.4167" x="642.7083" y="753.3438"/><rect fill="none" height="5.2083" style="stroke:#2196F3;stroke-width:1.0416666666666667;" width="10.4167" x="642.7083" y="796.4105"/><text fill="#2196F3" font-family="Verdana" font-size="12.5" lengthAdjust="spacing" textLength="33.3333" x="668.75" y="782.3313">godot</text></g><!--entity api--><g id="elem_api"><rect fill="none" filter="url(#fv51cxot6dvq8)" height="96.5502" rx="4.1667" ry="4.1667" style="stroke:#2196F3;stroke-width:1.0416666666666667;" width="147.9167" x="812.5" y="502.8021"/><rect fill="none" height="5.2083" style="stroke:#2196F3;stroke-width:1.0416666666666667;" width="10.4167" x="807.2917" y="508.0104"/><rect fill="none" height="5.2083" style="stroke:#2196F3;stroke-width:1.0416666666666667;" width="10.4167" x="807.2917" y="588.9357"/><text fill="#2196F3" font-family="Verdana" font-size="12.5" font-style="italic" lengthAdjust="spacing" textLength="29.1667" x="871.875" y="536.998">&#171;file&#187;</text><text fill="#2196F3" font-family="Verdana" font-size="12.5" lengthAdjust="spacing" textLength="106.25" x="833.3333" y="574.8565">extension_api.json</text></g><!--entity ifce--><g id="elem_ifce"><rect fill="none" filter="url(#fv51cxot6dvq8)" height="96.5502" rx="4.1667" ry="4.1667" style="stroke:#2196F3;stroke-width:1.0416666666666667;" width="180.2083" x="595.3125" y="502.8021"/><rect fill="none" height="5.2083" style="stroke:#2196F3;stroke-width:1.0416666666666667;" width="10.4167" x="590.1042" y="508.0104"/><rect fill="none" height="5.2083" style="stroke:#2196F3;stroke-width:1.0416666666666667;" width="10.4167" x="590.1042" y="588.9357"/><text fill="#2196F3" font-family="Verdana" font-size="12.5" font-style="italic" lengthAdjust="spacing" textLength="29.1667" x="670.8333" y="536.998">&#171;file&#187;</text><text fill="#2196F3" font-family="Verdana" font-size="12.5" lengthAdjust="spacing" textLength="138.5417" x="616.1458" y="574.8565">gdextension_interface.h</text></g><!--entity coronation--><g id="elem_coronation"><rect fill="none" filter="url(#fv51cxot6dvq8)" height="58.6918" rx="4.1667" ry="4.1667" style="stroke:#2196F3;stroke-width:1.0416666666666667;" width="104.1667" x="257.2917" y="73.9583"/><rect fill="none" height="5.2083" style="stroke:#2196F3;stroke-width:1.0416666666666667;" width="10.4167" x="252.0833" y="79.1667"/><rect fill="none" height="5.2083" style="stroke:#2196F3;stroke-width:1.0416666666666667;" width="10.4167" x="252.0833" y="122.2335"/><text fill="#2196F3" font-family="Verdana" font-size="12.5" lengthAdjust="spacing" textLength="62.5" x="278.125" y="108.1543">coronation</text></g><!--entity minister--><g id="elem_minister"><rect fill="none" filter="url(#fv51cxot6dvq8)" height="58.6918" rx="4.1667" ry="4.1667" style="stroke:#2196F3;stroke-width:1.0416666666666667;" width="89.5833" x="80.2083" y="521.7292"/><rect fill="none" height="5.2083" style="stroke:#2196F3;stroke-width:1.0416666666666667;" width="10.4167" x="75" y="526.9375"/><rect fill="none" height="5.2083" style="stroke:#2196F3;stroke-width:1.0416666666666667;" width="10.4167" x="75" y="570.0043"/><text fill="#2196F3" font-family="Verdana" font-size="12.5" lengthAdjust="spacing" textLength="47.9167" x="101.0417" y="555.9251">minister</text></g><!--entity godotcore--><g id="elem_godotcore"><rect fill="none" filter="url(#fv51cxot6dvq8)" height="58.6918" rx="4.1667" ry="4.1667" style="stroke:#2196F3;stroke-width:1.0416666666666667;" width="101.0417" x="394.2708" y="299.3229"/><rect fill="none" height="5.2083" style="stroke:#2196F3;stroke-width:1.0416666666666667;" width="10.4167" x="389.0625" y="304.5312"/><rect fill="none" height="5.2083" style="stroke:#2196F3;stroke-width:1.0416666666666667;" width="10.4167" x="389.0625" y="347.598"/><text fill="#2196F3" font-family="Verdana" font-size="12.5" lengthAdjust="spacing" textLength="59.375" x="415.1042" y="333.5188">godotcore</text></g><!--entity godotgen--><g id="elem_godotgen"><rect fill="none" filter="url(#fv51cxot6dvq8)" height="58.6918" rx="4.1667" ry="4.1667" style="stroke:#2196F3;stroke-width:1.0416666666666667;" width="96.875" x="260.9375" y="299.3229"/><rect fill="none" height="5.2083" style="stroke:#2196F3;stroke-width:1.0416666666666667;" width="10.4167" x="255.7292" y="304.5312"/><rect fill="none" height="5.2083" style="stroke:#2196F3;stroke-width:1.0416666666666667;" width="10.4167" x="255.7292" y="347.598"/><text fill="#2196F3" font-family="Verdana" font-size="12.5" lengthAdjust="spacing" textLength="55.2083" x="281.7708" y="333.5188">godotgen</text></g><!--entity godot--><g id="elem_godot"><rect fill="none" filter="url(#fv51cxot6dvq8)" height="58.6918" rx="4.1667" ry="4.1667" style="stroke:#2196F3;stroke-width:1.0416666666666667;" width="75" x="309.375" y="521.7292"/><rect fill="none" height="5.2083" style="stroke:#2196F3;stroke-width:1.0416666666666667;" width="10.4167" x="304.1667" y="526.9375"/><rect fill="none" height="5.2083" style="stroke:#2196F3;stroke-width:1.0416666666666667;" width="10.4167" x="304.1667" y="570.0043"/><text fill="#2196F3" font-family="Verdana" font-size="12.5" lengthAdjust="spacing" textLength="33.3333" x="330.2083" y="555.9251">godot</text></g><!--entity You--><g id="elem_You"><ellipse cx="346.875" cy="743.9688" fill="none" filter="url(#fv51cxot6dvq8)" rx="16.6667" ry="16.6667" style="stroke:#2196F3;stroke-width:1.0416666666666667;"/><path d="M346.875,764.8021 C351.0417,764.8021 354.1667,764.8021 358.3333,760.6354 C366.6667,760.6354 375,768.9688 375,777.3021 L375,781.4688 C375,785.6354 370.8333,789.8021 366.6667,789.8021 L327.0833,789.8021 C322.9167,789.8021 318.75,785.6354 318.75,781.4688 L318.75,777.3021 C318.75,768.9688 327.0833,760.6354 335.4167,760.6354 C339.5833,764.8021 342.7083,764.8021 346.875,764.8021 " fill="none" filter="url(#fv51cxot6dvq8)" style="stroke:#2196F3;stroke-width:1.0416666666666667;"/><text fill="#2196F3" font-family="Verdana" font-size="12.5" lengthAdjust="spacing" textLength="21.875" x="335.9375" y="814.623">You</text></g><!--link api to gd--><g id="link_api_gd"><path d="M843.8229,599.6875 C803.5938,644.5729 748.7749,705.7306 715.2958,743.0952 " fill="none" id="api-to-gd" style="stroke:#2196F3;stroke-width:3.125;stroke-dasharray:7.0,7.0;"/><polygon fill="#2196F3" points="711.125,747.75,720.4844,743.5483,714.6006,743.871,714.2779,737.9873,711.125,747.75" style="stroke:#2196F3;stroke-width:3.125;"/><text fill="#222222" font-family="Verdana" font-size="12.5" lengthAdjust="spacing" textLength="33.3333" x="803.125" y="680.248">dump</text></g><!--link ifce to gd--><g id="link_ifce_gd"><path d="M685.4167,599.6875 C685.4167,644.5729 685.4167,704.1354 685.4167,741.5 " fill="none" id="ifce-to-gd" style="stroke:#2196F3;stroke-width:3.125;stroke-dasharray:7.0,7.0;"/><polygon fill="#2196F3" points="685.4167,747.75,689.5833,738.375,685.4167,742.5417,681.25,738.375,685.4167,747.75" style="stroke:#2196F3;stroke-width:3.125;"/><text fill="#222222" font-family="Verdana" font-size="12.5" lengthAdjust="spacing" textLength="33.3333" x="696.875" y="680.248">dump</text></g><!--reverse link godotcore to godotgen--><g id="link_godotcore_godotgen"><path d="M375.0313,328.6667 C363.2083,328.6667 370.125,328.6667 358.3021,328.6667 " fill="none" id="godotcore-backto-godotgen" style="stroke:#2196F3;stroke-width:3.125;"/><polygon fill="none" points="393.7813,328.6667,375.0313,322.4167,375.0313,334.9167,393.7813,328.6667" style="stroke:#2196F3;stroke-width:3.125;"/></g><!--reverse link godotcore to godot--><g id="link_godotcore_godot"><path d="M424.3772,375.6456 C405.6168,417.8748 378.4479,478.9896 359.6771,521.2292 " fill="none" id="godotcore-backto-godot" style="stroke:#2196F3;stroke-width:3.125;"/><polygon fill="none" points="431.9896,358.5104,418.6655,373.1082,430.089,378.1831,431.9896,358.5104" style="stroke:#2196F3;stroke-width:3.125;"/></g><!--reverse link godotgen to godot--><g id="link_godotgen_godot"><path d="M317.4273,376.9946 C324.6148,419.2238 334.7813,478.9896 341.9688,521.2292 " fill="none" id="godotgen-backto-godot" style="stroke:#2196F3;stroke-width:3.125;"/><polygon fill="none" points="314.2813,358.5104,311.2659,378.0433,323.5887,375.9459,314.2813,358.5104" style="stroke:#2196F3;stroke-width:3.125;"/></g><!--reverse link coronation to godotgen--><g id="link_coronation_godotgen"><path d="M309.375,139.3333 C309.375,182.1979 309.375,256.1979 309.375,299 " fill="none" id="coronation-backto-godotgen" style="stroke:#2196F3;stroke-width:3.125;stroke-dasharray:7.0,7.0;"/><polygon fill="#2196F3" points="309.375,133.0833,305.2083,142.4583,309.375,138.2917,313.5417,142.4583,309.375,133.0833" style="stroke:#2196F3;stroke-width:3.125;"/><text fill="#222222" font-family="Verdana" font-size="12.5" lengthAdjust="spacing" textLength="53.125" x="320.8333" y="188.7272">generate</text></g><!--link coronation to api--><g id="link_coronation_api"><path d="M361.9583,128.9687 C403.6563,149.2812 462.8021,179.8542 511.4583,211.8229 C645.6354,299.9687 679.4375,324.4583 793.75,437.1771 C814.0625,457.2083 830.5578,476.5188 847.0057,497.3834 " fill="none" id="coronation-to-api" style="stroke:#2196F3;stroke-width:3.125;stroke-dasharray:7.0,7.0;"/><polygon fill="#2196F3" points="850.875,502.2917,848.3433,492.3497,847.6506,498.2014,841.7989,497.5088,850.875,502.2917" style="stroke:#2196F3;stroke-width:3.125;"/><text fill="#222222" font-family="Verdana" font-size="12.5" lengthAdjust="spacing" textLength="57.2917" x="721.875" y="333.6959">reference</text></g><!--link godotcore to ifce--><g id="link_godotcore_ifce"><path d="M476.25,358.5104 C516.25,395.1354 581.2449,454.654 629.099,498.4769 " fill="none" id="godotcore-to-ifce" style="stroke:#2196F3;stroke-width:3.125;stroke-dasharray:7.0,7.0;"/><polygon fill="#2196F3" points="633.7083,502.6979,629.6084,493.2935,629.8673,499.1804,623.9804,499.4393,633.7083,502.6979" style="stroke:#2196F3;stroke-width:3.125;"/><text fill="#222222" font-family="Verdana" font-size="12.5" lengthAdjust="spacing" textLength="41.6667" x="561.4583" y="414.0813">include</text></g><!--reverse link library to minister--><g id="link_library_minister"><path d="M207.6589,366.5273 C205.9796,367.9525 208.3292,365.5783 206.6003,366.6215 C203.1426,368.7078 199.5947,370.0902 195.9935,371.0085 C188.791,372.8451 181.375,372.8255 174.0391,372.8698 C159.3672,372.9583 145.0156,373.3021 133.3333,389.2604 C105.1042,427.8229 110.8646,486.6042 117.8125,521.3854 " fill="none" id="library-backto-minister" style="stroke:#2196F3;stroke-width:3.125;stroke-dasharray:7.0,7.0;"/><polygon fill="#2196F3" points="212.3433,362.3898,202.5583,365.4731,208.4396,365.8377,208.075,371.719,212.3433,362.3898" style="stroke:#2196F3;stroke-width:3.125;"/><text fill="#222222" font-family="Verdana" font-size="12.5" lengthAdjust="spacing" textLength="87.5" x="144.7917" y="414.0813">install/uninstall</text></g><!--reverse link coronation to minister--><g id="link_coronation_minister"><path d="M250.8842,114.9912 C198.2696,127.3453 126.0208,153.4479 89.5833,211.8229 C27.5313,311.2396 83,459.8229 111.0521,521.5625 " fill="none" id="coronation-backto-minister" style="stroke:#2196F3;stroke-width:3.125;stroke-dasharray:7.0,7.0;"/><polygon fill="#2196F3" points="256.9688,113.5625,246.8895,111.6492,251.8983,114.7531,248.7944,119.7619,256.9688,113.5625" style="stroke:#2196F3;stroke-width:3.125;"/><text fill="#222222" font-family="Verdana" font-size="12.5" lengthAdjust="spacing" textLength="91.6667" x="101.0417" y="333.6959">use while install</text></g><!--link You to gd--><g id="link_You_gd"><path d="M376.3021,777.4792 C466.7604,777.4792 550.9688,777.4792 641.4375,777.4792 " fill="none" id="You-to-gd" style="stroke:#2196F3;stroke-width:3.125;"/><polygon fill="#2196F3" points="647.6875,777.4792,638.3125,773.3125,642.4792,777.4792,638.3125,781.6458,647.6875,777.4792" style="stroke:#2196F3;stroke-width:3.125;"/></g><!--reverse link godot to You--><g id="link_godot_You"><path d="M346.875,599.2813 C346.875,635.8229 346.875,681.1875 346.875,726.0833 " fill="none" id="godot-backto-You" style="stroke:#2196F3;stroke-width:3.125;"/><polygon fill="none" points="346.875,580.5313,340.625,599.2813,353.125,599.2813,346.875,580.5313" style="stroke:#2196F3;stroke-width:3.125;"/></g><!--link You to minister--><g id="link_You_minister"><path d="M317.2396,746.4688 C274.2604,703.0208 199.5933,627.5266 157.4996,584.9745 " fill="none" id="You-to-minister" style="stroke:#2196F3;stroke-width:3.125;"/><polygon fill="#2196F3" points="153.1042,580.5313,156.7351,590.1265,156.767,584.234,162.6595,584.2659,153.1042,580.5313" style="stroke:#2196F3;stroke-width:3.125;"/></g><!--SRC=[XLB1ReCm3BtdAppj3DEkgEAoJ-XXcYeqfM0WQsAZaAYhjlxx72WjxMKt-_dvFTl9K-ZH8JWTq1kTSGpM4AhnO6ZGNZlOw_hGUOxKlB5b3y_llGcuTNnOisfs0nDIs8QJHOZElgwgkWxivue-uiWEbHf4LtS87JSSSlOT_2Y0tPHMe4Ve6fK0_0v8es7wr8F9lqQc2ZQRrbWioqGJTEfhRaH3iaohQypxUwvfQrJd1- -CZ9kyhpj8v9bq42tOIG5MWAHLydE6p2WsAI5k4ApPU-rFazAoXxHXjSexf7MQudEQPxeFV72KS32GDtafwqC1JNI3IbC_OchHWyncloLSxUO2PF4VL5fN8daKzTNM1GYANZw5KYiu5rOQi02FBNga-gASFAPgchK0GxMDZVGkLveDbXCbmXYqjI-HBj43yswKE28SUtd4fKqfEHLawHvpT5jhgInowWy0]--></g></svg>